<svg id="Layer" enable-background="new 0 0 64 64" height="512" viewBox="0 0 64 64" width="512" xmlns="http://www.w3.org/2000/svg"><path d="m51.827 17.188c-.268-.602-.814-1.034-1.462-1.154-.652-.121-1.314.086-1.779.552l-7.855 7.855-2.873-7.184c-.25-.625-.797-1.082-1.455-1.216-.657-.136-1.341.07-1.816.545l-7.855 7.855-2.873-7.184c-.238-.595-.746-1.039-1.367-1.196-.619-.156-1.278-.008-1.771.402l-12 10c-.849.708-.963 1.968-.256 2.817.394.475.963.72 1.536.72.451 0 .905-.152 1.279-.463l9.885-8.238 2.978 7.444c.25.625.797 1.082 1.455 1.216.661.137 1.342-.07 1.816-.545l7.855-7.855 2.873 7.184c.25.625.797 1.082 1.455 1.216.66.137 1.342-.07 1.816-.545l7.941-7.941 2.817 6.339c.448 1.009 1.627 1.462 2.64 1.015 1.009-.449 1.464-1.63 1.015-2.64z"/><path d="m51.827 35.188c-.268-.602-.814-1.034-1.462-1.154-.652-.121-1.314.086-1.779.552l-7.855 7.855-2.873-7.184c-.25-.625-.797-1.082-1.455-1.216-.657-.136-1.341.07-1.816.545l-7.855 7.855-2.873-7.184c-.238-.595-.746-1.039-1.367-1.196-.619-.157-1.278-.008-1.771.402l-12 10c-.849.708-.963 1.968-.256 2.817.394.475.963.72 1.536.72.451 0 .905-.152 1.279-.463l9.885-8.238 2.978 7.444c.25.625.797 1.082 1.455 1.216.661.137 1.342-.069 1.816-.545l7.855-7.855 2.873 7.184c.25.625.797 1.082 1.455 1.216.66.137 1.342-.069 1.816-.545l7.941-7.941 2.817 6.339c.448 1.009 1.627 1.462 2.64 1.015 1.009-.449 1.464-1.63 1.015-2.64z"/></svg>