<svg id="Layer" enable-background="new 0 0 64 64" height="512" viewBox="0 0 64 64" width="512" xmlns="http://www.w3.org/2000/svg"><path d="m46.246 10c-4.598 0-8.587 3.115-9.701 7.575-.013.052-.023.104-.032.157l-4.513 27.149-4.512-27.15c-.009-.053-.02-.105-.033-.157-1.115-4.459-5.104-7.574-9.705-7.574-5.376 0-9.75 4.374-9.75 9.751 0 1.984.773 3.85 2.176 5.253l4.41 4.41c.78.781 2.048.781 2.828 0 .781-.781.781-2.047 0-2.828l-4.41-4.41c-.647-.648-1.004-1.509-1.004-2.426 0-3.17 2.58-5.75 5.754-5.75 2.733 0 5.108 1.835 5.802 4.473l5.5 33.098c.009.053.02.105.033.157.34 1.359 1.51 2.272 2.911 2.272s2.57-.913 2.91-2.272c.014-.052.024-.104.033-.157l5.501-33.099c.694-2.637 3.069-4.472 5.806-4.472 3.171 0 5.75 2.58 5.75 5.751 0 .916-.356 1.777-1.005 2.425l-4.409 4.41c-.781.781-.781 2.047 0 2.828s2.047.781 2.828 0l4.409-4.409c1.404-1.403 2.177-3.27 2.177-5.255 0-5.376-4.374-9.75-9.754-9.75z"/></svg>