<svg id="Layer" enable-background="new 0 0 64 64" height="512" viewBox="0 0 64 64" width="512" xmlns="http://www.w3.org/2000/svg"><path d="m17 34.465c4.963 0 9-4.038 9-9 0-2.398-.948-4.574-2.483-6.189 7.4-.834 14.957.329 21.787 3.434l7.867 3.576c.269.122.55.18.827.18.76 0 1.486-.436 1.821-1.173.457-1.005.013-2.191-.992-2.648l-7.868-3.576c-9.468-4.304-20.206-5.216-30.262-2.588-4.821.16-8.697 4.123-8.697 8.984 0 4.962 4.037 9 9 9zm0-14c2.757 0 5 2.243 5 5s-2.243 5-5 5-5-2.243-5-5 2.243-5 5-5z"/><path d="m56 38.535c0-4.962-4.037-9-9-9s-9 4.038-9 9c0 2.398.949 4.575 2.483 6.19-7.401.835-14.958-.329-21.789-3.435l-7.867-3.576c-1-.456-2.189-.014-2.647.993-.457 1.006-.013 2.191.993 2.648l7.867 3.576c5.929 2.695 12.354 4.062 18.802 4.062 3.842 0 7.691-.493 11.446-1.473 4.829-.153 8.712-4.12 8.712-8.985zm-9 5c-2.757 0-5-2.243-5-5s2.243-5 5-5 5 2.243 5 5-2.243 5-5 5z"/></svg>