<svg id="Layer" enable-background="new 0 0 64 64" height="512" viewBox="0 0 64 64" width="512" xmlns="http://www.w3.org/2000/svg"><path d="m37.986 38.98c1.253 2.682 3.736 4.458 6.641 4.75.316.032.637.048.961.048 5.189 0 9.412-4.187 9.412-9.333 0-1.104-.896-2-2-2s-2 .896-2 2c0 2.941-2.428 5.333-5.412 5.333-.188 0-.373-.009-.558-.028-1.514-.152-2.76-1.049-3.42-2.462-.72-1.539-.582-3.292.366-4.689 2.944-4.335 4.376-7.729 4.376-10.375.001-7.844-6.438-14.224-14.352-14.224s-14.353 6.38-14.353 14.222c0 3.08 1.901 6.888 4.095 10.265-.285-.02-.57-.043-.86-.043-6.551 0-11.882 5.284-11.882 11.778s5.331 11.778 11.883 11.778 11.882-5.284 11.882-11.778c0-3.331-1.408-6.337-3.658-8.481-4.601-5.595-7.459-10.774-7.459-13.519-.001-5.637 4.644-10.222 10.352-10.222s10.353 4.585 10.353 10.222c0 1.233-.64 3.645-3.685 8.128-1.723 2.537-1.984 5.844-.682 8.63zm-17.103 13.02c-4.347 0-7.883-3.489-7.883-7.778s3.536-7.778 7.883-7.778c4.346 0 7.882 3.489 7.882 7.778s-3.536 7.778-7.882 7.778z"/></svg>