<svg id="Layer" enable-background="new 0 0 64 64" height="512" viewBox="0 0 64 64" width="512" xmlns="http://www.w3.org/2000/svg"><path d="m54 35h-11.051c1.321-2.064 2.051-4.488 2.051-7 0-7.168-5.832-13-13-13s-13 5.832-13 13c0 2.512.73 4.936 2.051 7h-11.051c-1.104 0-2 .896-2 2s.896 2 2 2h15.68c.872 0 1.644-.565 1.907-1.396s-.043-1.738-.756-2.239c-2.399-1.688-3.831-4.441-3.831-7.365 0-4.962 4.038-9 9-9s9 4.038 9 9c0 2.924-1.432 5.677-3.831 7.364-.713.501-1.02 1.408-.756 2.239s1.035 1.397 1.907 1.397h15.68c1.104 0 2-.896 2-2s-.896-2-2-2z"/><path d="m54 45h-44c-1.104 0-2 .896-2 2s.896 2 2 2h44c1.104 0 2-.896 2-2s-.896-2-2-2z"/></svg>