<svg id="Layer" enable-background="new 0 0 64 64" height="512" viewBox="0 0 64 64" width="512" xmlns="http://www.w3.org/2000/svg"><path d="m14 34h9.064c-.2 4.308-1.043 8.591-2.535 12.695l-2.408 6.622c-.377 1.038.158 2.186 1.196 2.563.225.081.456.12.683.12.817 0 1.584-.504 1.879-1.317l2.408-6.622c1.653-4.544 2.579-9.291 2.782-14.062h9.862c.202 4.771 1.129 9.518 2.781 14.062l2.408 6.622c.296.813 1.063 1.317 1.88 1.317.228 0 .458-.039.684-.121 1.038-.377 1.573-1.525 1.196-2.563l-2.408-6.622c-1.492-4.103-2.336-8.387-2.536-12.695h9.064c1.104 0 2-.896 2-2s-.896-2-2-2h-9.064c.2-4.308 1.043-8.591 2.536-12.695l2.408-6.622c.377-1.038-.158-2.186-1.196-2.563-1.036-.376-2.185.157-2.563 1.196l-2.408 6.622c-1.653 4.545-2.58 9.292-2.782 14.063h-9.862c-.203-4.771-1.129-9.518-2.782-14.062l-2.408-6.622c-.377-1.038-1.525-1.573-2.563-1.196s-1.573 1.525-1.196 2.563l2.408 6.622c1.492 4.103 2.335 8.387 2.535 12.695h-9.063c-1.104 0-2 .896-2 2s.896 2 2 2z"/></svg>