<svg id="Layer" enable-background="new 0 0 64 64" height="512" viewBox="0 0 64 64" width="512" xmlns="http://www.w3.org/2000/svg"><path d="m51.414 44.586c-.78-.781-2.048-.781-2.828 0-.781.781-.781 2.047 0 2.828l.586.586h-6.172c-1.103 0-2-.897-2-2v-30c0-3.192-1.893-6.074-4.822-7.342-2.02-.874-4.336-.874-6.355 0-1.104.478-2.06 1.185-2.823 2.051-.763-.866-1.719-1.573-2.822-2.051-2.02-.874-4.336-.874-6.355 0-1.486.643-2.701 1.704-3.542 3.007-.812-1.158-1.775-2.222-2.911-3.131l-.121-.097c-.864-.689-2.122-.548-2.811.315s-.548 2.122.315 2.811l.12.095c2.624 2.1 4.128 5.23 4.128 8.59v3.752 18c0 1.104.896 2 2 2s2-.896 2-2v-18-3.752-4.248c0-1.596.946-3.037 2.411-3.671 1.01-.438 2.168-.438 3.178 0 1.464.634 2.41 2.075 2.41 3.671v8 18c0 1.104.896 2 2 2s2-.896 2-2v-18-8c0-1.596.946-3.037 2.411-3.671 1.01-.438 2.168-.438 3.178 0 1.465.634 2.411 2.075 2.411 3.671v30c0 3.309 2.691 6 6 6h6.172l-.586.586c-.781.781-.781 2.047 0 2.828.39.391.902.586 1.414.586s1.024-.195 1.414-.586l4-4c.781-.781.781-2.047 0-2.828z"/></svg>