<svg id="Layer" enable-background="new 0 0 64 64" height="512" viewBox="0 0 64 64" width="512" xmlns="http://www.w3.org/2000/svg"><path d="m54 11h-4.043c-3.205 0-6.091 1.903-7.354 4.849l-2.883 6.726c-.631 1.473-2.074 2.425-3.677 2.425h-8.087c-1.602 0-3.045-.952-3.677-2.424l-2.883-6.727c-1.262-2.946-4.148-4.849-7.353-4.849h-4.043c-1.104 0-2 .896-2 2s.896 2 2 2h4.043c1.602 0 3.045.952 3.677 2.424l2.883 6.727c.653 1.524 1.746 2.76 3.088 3.607-3.444 2.553-5.691 6.635-5.691 11.242 0 7.72 6.28 14 14 14s14-6.28 14-14c0-4.607-2.247-8.689-5.691-11.242 1.342-.847 2.435-2.083 3.088-3.607l2.883-6.726c.631-1.473 2.074-2.425 3.677-2.425h4.043c1.104 0 2-.896 2-2s-.896-2-2-2zm-12 28c0 5.514-4.486 10-10 10s-10-4.486-10-10 4.486-10 10-10 10 4.486 10 10z"/></svg>