<svg id="Layer" enable-background="new 0 0 64 64" height="512" viewBox="0 0 64 64" width="512" xmlns="http://www.w3.org/2000/svg"><path d="m54 46h-11c-.38 0-.731-.112-1.034-.297 3.613-4.136 6.41-8.869 8.142-13.85.608-1.75.892-2.975.892-3.853 0-3.86-3.14-7-7-7-1.075 0-2.089.25-3 .685v-5.685c0-3.192-1.893-6.074-4.822-7.342-2.02-.874-4.336-.874-6.355 0-1.104.478-2.06 1.185-2.823 2.051-.763-.866-1.719-1.573-2.822-2.051-2.02-.874-4.336-.874-6.355 0-1.486.643-2.701 1.704-3.542 3.007-.812-1.158-1.775-2.222-2.911-3.131l-.121-.097c-.864-.69-2.122-.548-2.811.315s-.548 2.122.315 2.811l.12.095c2.624 2.1 4.128 5.23 4.128 8.59v9.752 12c0 1.104.896 2 2 2s2-.896 2-2v-12-9.752-4.248c0-1.596.946-3.037 2.411-3.671 1.01-.438 2.168-.438 3.178 0 1.464.634 2.41 2.075 2.41 3.671v14 12c0 1.104.896 2 2 2s2-.896 2-2v-12-14c0-1.596.946-3.037 2.411-3.671 1.01-.438 2.168-.438 3.178 0 1.465.634 2.411 2.075 2.411 3.671v28c0 .366.038.723.101 1.071l-7.515 7.515c-.781.781-.781 2.047 0 2.828.39.391.902.586 1.414.586s1.023-.195 1.414-.586l6.78-6.779c1.037.852 2.362 1.365 3.806 1.365h11c1.104 0 2-.896 2-2s-.896-2-2-2zm-10-21c1.654 0 3 1.346 3 3 0 .102-.032.705-.67 2.54-1.221 3.511-3.037 6.888-5.33 9.988v-12.528c0-1.654 1.346-3 3-3z"/></svg>